<?xml version="1.0" encoding="UTF-8" standalone="no"?>
<!-- Created with Inkscape (http://www.inkscape.org/) -->

<svg
   width="8.6140289mm"
   height="9.0243845mm"
   viewBox="0 0 8.6140289 9.0243845"
   version="1.1"
   id="svg1"
   xml:space="preserve"
   xmlns="http://www.w3.org/2000/svg"
   xmlns:svg="http://www.w3.org/2000/svg">

   <defs id="defs1" />
   
     <g
     id="layer2"
     transform="translate(49.405488,312.37878)">
      <path
       d="m -48.321507,-312.37876 c -0.598479,0 -1.083979,0.48469 -1.083979,1.08317 0,0.59848 0.485109,1.09439 1.083177,1.09439 0.598066,0 1.083977,-0.49591 1.083977,-1.09439 0,-0.59807 -0.484698,-1.08317 -1.083175,-1.08317 z m 5.288494,2.87137 c -0.910229,0 -1.431036,0.47603 -1.680846,0.94938 h -0.02644 v -0.822 h -1.793809 v 6.02558 h 1.869119 v -2.98273 c 0,-0.78595 0.05932,-1.54546 1.031901,-1.54546 0.958631,0 0.972615,0.89614 0.972615,1.59511 v 2.93308 h 1.866716 0.0023 v -3.30961 c 0,-1.61947 -0.348194,-2.84335 -2.241661,-2.84335 z m -6.223455,0.12745 v 6.02557 h 1.870721 v -6.02557 z"
       id="path1"
       style="fill:#1b1b1e;fill-opacity:1;stroke:none;stroke-width:0.410196;stroke-opacity:1">
      </path>
    </g>
</svg>